HIERARCHY
ROOT Hips
{
	OFFSET 0.000000 0.000000 0.000000
	CHANNELS 6 Xposition Yposition Zposition Zrotation Yrotation Xrotation 
	JOINT LHipJoint
	{
		OFFSET 0.000000 0.000000 0.000000
		CHANNELS 3 Zrotation Yrotation Xrotation
		JOINT LeftUpLeg
		{
			OFFSET 1.363060 -1.794630 0.839290
			CHANNELS 3 Zrotation Yrotation Xrotation
			JOINT LeftLeg
			{
				OFFSET 2.448110 -6.726130 0.000000
				CHANNELS 3 Zrotation Yrotation Xrotation
				JOINT LeftFoot
				{
					OFFSET 2.562200 -7.039590 0.000000
					CHANNELS 3 Zrotation Yrotation Xrotation
					JOINT LeftToeBase
					{
						OFFSET 0.157640 -0.433110 2.322550
						CHANNELS 3 Zrotation Yrotation Xrotation
						End Site
						{
							OFFSET 0.000000 0.000000 0.000000
						}
					}
				}
			}
		}
	}
	JOINT RHipJoint
	{
		OFFSET 0.000000 0.000000 0.000000
		CHANNELS 3 Zrotation Yrotation Xrotation
		JOINT RightUpLeg
		{
			OFFSET -1.305520 -1.794630 0.839290
			CHANNELS 3 Zrotation Yrotation Xrotation
			JOINT RightLeg
			{
				OFFSET -2.542530 -6.985550 0.000000
				CHANNELS 3 Zrotation Yrotation Xrotation
				JOINT RightFoot
				{
					OFFSET -2.568260 -7.056230 0.000000
					CHANNELS 3 Zrotation Yrotation Xrotation
					JOINT RightToeBase
					{
						OFFSET -0.164730 -0.452590 2.363150
						CHANNELS 3 Zrotation Yrotation Xrotation
						End Site
						{
							OFFSET 0.000000 0.000000 0.000000
						}
					}
				}
			}
		}
	}
}
MOTION
Frames: 33
Frame Time: 0.008333
-19.584078 15.984438 -0.445442 15.402580 83.365339 39.111482 -8.647823 -0.749102 6.136648 -4.884205 -12.335692 -65.195647 -0.943701 1.769667 41.818219 2.502491 8.760780 -13.277741 -0.412500 -0.000000 -27.426900 10.257327 -4.641359 -0.242582 1.989094 -7.826392 6.208551 1.535298 -0.855099 11.215021 0.374456 4.908676 12.567799 1.363800 0.000000 -92.353100
-19.338639 16.018333 -0.453373 16.404879 83.329935 40.023492 -8.653269 -0.713074 6.049697 -5.343638 -12.370866 -64.333234 -0.917537 1.780185 42.373840 2.545071 9.024529 -13.476059 -0.476300 0.000000 -26.874399 10.420525 -4.719993 -0.245899 1.594642 -7.966034 4.820060 1.168814 -1.196415 14.472875 0.157951 4.302644 15.883465 1.493800 0.000000 -93.143900
-19.096715 16.055472 -0.461812 17.593202 83.330453 41.088309 -8.653331 -0.669465 5.937622 -5.879870 -12.337365 -63.348587 -0.916297 1.778813 42.752530 2.555426 9.155252 -13.606336 -0.526700 -0.000000 -26.498400 10.612440 -4.733566 -0.265921 1.209952 -8.191052 3.230198 0.789176 -1.491404 18.069101 -0.108780 3.591937 19.090674 1.536400 0.000000 -92.264000
-18.858472 16.095448 -0.470695 18.901120 83.366012 42.248877 -8.648951 -0.616014 5.804877 -6.474857 -12.229391 -62.253228 -0.937295 1.765881 42.961234 2.536939 9.161557 -13.678982 -0.563600 0.000000 -26.283100 10.822038 -4.677762 -0.292692 0.865412 -8.452504 1.464506 0.427160 -1.730661 21.945815 -0.411405 2.721534 21.990050 1.431801 0.000000 -89.654201
-18.623204 16.138025 -0.479113 20.491190 83.435175 43.669318 -8.630381 -0.549800 5.655947 -7.137761 -12.067046 -61.036954 -0.979499 1.737913 42.992571 2.497234 9.073472 -13.704944 -0.589200 0.000001 -26.197900 11.051338 -4.559063 -0.325228 0.548318 -8.745625 -0.452056 0.110735 -1.921857 26.037753 -0.727662 1.670086 24.374383 1.141400 0.000001 -85.570000
-18.390689 16.182968 -0.487515 22.149851 83.527630 45.148803 -8.607082 -0.467889 5.499095 -7.827443 -11.836027 -59.726293 -1.038479 1.698038 42.861514 2.441974 8.908280 -13.706130 -0.607100 0.000000 -26.217000 11.276352 -4.393052 -0.359728 0.305887 -9.027167 -2.495747 -0.145895 -2.082111 30.263206 -1.035326 0.395040 26.078855 0.632899 0.000000 -80.527900
-18.160365 16.230232 -0.495671 23.866457 83.635469 46.682153 -8.579750 -0.368956 5.341394 -8.527031 -11.545901 -58.329844 -1.111738 1.645950 42.570358 2.378968 8.696185 -13.702676 -0.621800 0.000000 -26.308100 11.488979 -4.198397 -0.397222 0.146006 -9.289694 -4.649103 -0.345807 -2.233676 34.539799 -1.317629 -1.086364 27.007040 -0.069100 -0.000000 -75.190700
-17.931737 16.279827 -0.503782 25.547229 83.752495 48.185965 -8.554076 -0.254238 5.189652 -9.208160 -11.201455 -56.866843 -1.196271 1.582529 42.126850 2.314710 8.461382 -13.716718 -0.637600 0.000000 -26.442300 11.678334 -3.991333 -0.436401 0.088041 -9.516830 -6.900337 -0.503988 -2.393194 38.786588 -1.565568 -2.724085 27.135060 -0.900000 -0.000000 -70.136200
-17.704169 16.331938 -0.511458 27.243790 83.872724 49.717443 -8.526987 -0.125022 5.049005 -9.864014 -10.824873 -55.343061 -1.290725 1.506099 41.528302 2.255982 8.232473 -13.764149 -0.658400 -0.000000 -26.591700 11.846855 -3.781081 -0.476170 0.122015 -9.707990 -9.238929 -0.638175 -2.569770 42.929834 -1.775683 -4.423361 26.491226 -1.757600 0.000000 -65.717900
-17.477302 16.386502 -0.519156 28.835823 83.994847 51.167388 -8.506058 0.013613 4.923739 -10.464957 -10.422218 -53.783608 -1.392284 1.417924 40.787198 2.205564 8.018815 -13.861180 -0.687100 0.000000 -26.738500 11.985468 -3.573198 -0.512405 0.266902 -9.844520 -11.657696 -0.763060 -2.763127 46.900934 -1.947593 -6.090893 25.139533 -2.542001 -0.000000 -62.030400
-17.250927 16.443538 -0.526705 30.356581 84.116090 52.573443 -8.489022 0.158102 4.815681 -11.006623 -10.014588 -52.194992 -1.499851 1.316832 39.904394 2.165896 7.831604 -14.013498 -0.725100 0.000000 -26.867800 12.097086 -3.367646 -0.542339 0.509899 -9.923147 -14.143519 -0.886286 -2.968633 50.634699 -2.081765 -7.623412 23.168157 -3.159701 -0.000000 -59.002701
-17.024877 16.502932 -0.534088 31.821466 84.234417 53.953730 -8.474431 0.304535 4.724403 -11.485934 -9.619770 -50.580438 -1.612219 1.202169 38.881679 2.137045 7.673023 -14.218418 -0.772201 0.000000 -26.972300 12.183295 -3.162000 -0.563419 0.836884 -9.937839 -16.678235 -1.008531 -3.178794 54.069842 -2.178851 -8.934897 20.687374 -3.547800 0.000000 -56.474800
-16.799139 16.564448 -0.541305 33.240686 84.347172 55.316827 -8.461296 0.449160 4.647551 -11.902195 -9.251766 -48.937316 -1.728104 1.073666 37.720496 2.117071 7.538318 -14.464271 -0.826600 0.000000 -27.051600 12.245017 -2.953156 -0.573468 1.230369 -9.881791 -19.236710 -1.124975 -3.385336 57.151059 -2.239753 -9.963086 17.829593 -3.682100 -0.000001 -54.280300
-16.573727 16.627746 -0.548445 34.613518 84.452295 56.657302 -8.449658 0.588576 4.581424 -12.255663 -8.920007 -47.257272 -1.845865 0.931414 36.421570 2.102517 7.418435 -14.730464 -0.884600 -0.000001 -27.111600 12.282384 -2.738411 -0.571051 1.670363 -9.749716 -21.790440 -1.227639 -3.580727 59.834243 -2.265814 -10.672560 14.743365 -3.577700 0.000000 -52.257300
-16.348397 16.692320 -0.555542 35.936302 84.547667 57.963403 -8.439656 0.719792 4.520839 -12.549116 -8.630630 -45.526744 -1.963496 0.775928 34.985582 2.089313 7.304240 -14.989624 -0.941200 -0.000000 -27.161000 12.295924 -2.515538 -0.556500 2.134114 -9.540435 -24.308900 -1.308283 -3.759288 62.090506 -2.259678 -11.057677 11.588053 -3.283500 0.000000 -50.303200
-16.123377 16.757486 -0.562836 37.173990 84.633146 59.189844 -8.433946 0.840152 4.460988 -12.781848 -8.383026 -43.731762 -2.078178 0.608450 33.415841 2.072957 7.186673 -15.210419 -0.990700 0.000000 -27.210200 12.284561 -2.284333 -0.530451 2.604807 -9.255425 -26.763839 -1.360924 -3.916901 63.907803 -2.225922 -11.144275 8.519920 -2.869900 0.000000 -48.359200
-15.898469 16.822417 -0.570555 38.275876 84.710315 60.276425 -8.436068 0.947378 4.397332 -12.952599 -8.173474 -41.860981 -2.186502 0.430987 31.719763 2.049699 7.060881 -15.362326 -1.027501 0.000000 -27.266300 12.247058 -2.045869 -0.494645 3.070494 -8.899629 -29.131766 -1.383344 -4.051219 65.291192 -2.171362 -10.985572 5.678078 -2.411700 0.000000 -46.439099
-15.673340 16.886089 -0.579070 39.168894 84.784166 61.142319 -8.451284 1.039708 4.327279 -13.056680 -7.993668 -39.912948 -2.284484 0.246622 29.913232 2.016700 6.924665 -15.420155 -1.047000 0.000000 -27.330900 12.181084 -1.803365 -0.449983 3.530266 -8.478553 -31.398570 -1.377178 -4.161060 66.261344 -2.104558 -10.654205 3.166629 -1.971900 -0.000001 -44.604800
-15.447778 16.947471 -0.588547 39.805314 84.859018 61.732015 -8.482699 1.117058 4.248490 -13.095019 -7.835400 -37.885070 -2.368599 0.058681 28.012932 1.973255 6.783848 -15.365913 -1.047000 -0.000000 -27.397100 12.086737 -1.560404 -0.398388 3.982315 -8.001665 -33.552191 -1.346509 -4.246806 66.848274 -2.034213 -10.226584 1.041736 -1.590500 0.000000 -42.936600
-15.221399 17.005358 -0.599292 40.113595 84.942685 61.973758 -8.534876 1.179852 4.161406 -13.065391 -7.686391 -35.795842 -2.435587 -0.128199 26.050042 1.919772 6.642791 -15.195793 -1.027499 0.000000 -27.451200 11.962254 -1.322436 -0.339194 4.437712 -7.474075 -35.594113 -1.296104 -4.309100 67.089220 -1.968614 -9.775594 -0.691815 -1.284400 0.000000 -41.488399
-14.993775 17.058599 -0.611408 40.059142 85.041590 61.834358 -8.609494 1.230296 4.066618 -12.972202 -7.533406 -33.666279 -2.483818 -0.309496 24.057766 1.858195 6.507658 -14.918398 -0.990801 -0.000000 -27.475100 11.808224 -1.094537 -0.271437 4.904153 -6.902255 -37.527472 -1.229568 -4.349321 67.019558 -1.913958 -9.356123 -2.073249 -1.052200 0.000000 -40.273100
-14.764317 17.105973 -0.624909 39.624486 85.162724 61.309227 -8.706882 1.272017 3.969624 -12.820801 -7.365342 -31.542074 -2.513181 -0.480729 22.081138 1.791393 6.380324 -14.558044 -0.941300 0.000000 -27.451700 11.625273 -0.881875 -0.188838 5.392324 -6.287946 -39.373495 -1.148899 -4.368562 66.671882 -1.874518 -9.003746 -3.168746 -0.882200 0.000000 -39.265300
-14.532776 17.146651 -0.639437 38.848993 85.306227 60.442231 -8.822689 1.309392 3.869655 -12.629417 -7.165376 -29.447443 -2.526605 -0.639006 20.152597 1.722001 6.259640 -14.145274 -0.884400 0.000000 -27.369500 11.418357 -0.687103 -0.089235 5.896010 -5.639166 -41.135649 -1.053753 -4.368698 66.063466 -1.851185 -8.727402 -4.052576 -0.758900 0.000000 -38.418600
-14.298786 17.179849 -0.654494 37.809884 85.471652 59.322397 -8.950961 1.347081 3.769080 -12.417258 -6.918744 -27.420130 -2.528790 -0.782845 18.306176 1.652099 6.136697 -13.718705 -0.825600 0.000000 -27.228500 11.193032 -0.512299 0.033831 6.405871 -4.961219 -42.828360 -0.942644 -4.350976 65.202229 -1.842474 -8.516485 -4.788853 -0.668500 -0.000000 -37.688000
-14.062185 17.205115 -0.669397 36.626701 85.655487 58.076479 -9.084162 1.388711 3.666123 -12.206591 -6.607160 -25.481968 -2.526024 -0.912605 16.563152 1.582235 5.995906 -13.315390 -0.769800 -0.000000 -27.045400 10.956628 -0.358205 0.184528 6.902369 -4.262152 -44.454637 -0.813242 -4.316505 64.082574 -1.844169 -8.343161 -5.419358 -0.600800 0.000000 -37.043400
-13.822950 17.222080 -0.683288 35.513943 85.852618 56.926083 -9.212529 1.437780 3.561392 -12.021760 -6.221622 -23.650196 -2.525326 -1.030641 14.933874 1.512240 5.819735 -12.966623 -0.720800 -0.000000 -26.851100 10.718576 -0.224723 0.368749 7.357408 -3.553304 -46.020167 -0.663690 -4.266059 62.693057 -1.849793 -8.168634 -5.957094 -0.550500 -0.000000 -36.482700
-13.581174 17.230758 -0.695430 34.692863 86.057718 56.092531 -9.328701 1.495114 3.449445 -11.881935 -5.747712 -21.920399 -2.533323 -1.140002 13.411978 1.439656 5.584413 -12.690000 -0.679700 0.000000 -26.698900 10.487180 -0.111390 0.587186 7.742304 -2.847299 -47.515025 -0.492638 -4.199671 61.014413 -1.851085 -7.951657 -6.384598 -0.517300 0.000000 -36.034700
-13.337153 17.231232 -0.705169 34.414340 86.264914 55.822273 -9.426955 1.560926 3.324877 -11.800164 -5.175262 -20.276067 -2.555370 -1.243852 11.980324 1.360978 5.265485 -12.487997 -0.645100 0.000000 -26.658400 10.270332 -0.017533 0.838997 8.030678 -2.158906 -48.925801 -0.300131 -4.116451 59.029171 -1.838880 -7.655709 -6.662017 -0.504600 -0.000000 -35.757800
-13.091364 17.223678 -0.712053 34.902912 86.467465 56.329695 -9.504164 1.635080 3.181727 -11.781320 -4.496277 -18.689731 -2.594884 -1.344457 10.613867 1.271863 4.838883 -12.346175 -0.612800 0.000000 -26.812700 10.074744 0.057985 1.120803 8.203885 -1.503014 -50.233945 -0.087594 -4.014389 56.725729 -1.804070 -7.254653 -6.739275 -0.516700 -0.000000 -35.722200
-12.844151 17.208319 -0.715926 36.319334 86.657976 57.767030 -9.559125 1.717351 3.014901 -11.820759 -3.709944 -17.131232 -2.652710 -1.442833 9.283887 1.168441 4.286873 -12.235301 -0.576500 -0.000000 -27.245600 9.905973 0.117825 1.426963 8.253161 -0.893658 -51.423526 0.142876 -3.890680 54.101326 -1.738781 -6.735094 -6.573073 -0.554500 0.000000 -35.979300
-12.596015 17.185322 -0.716812 38.708110 86.827027 60.166682 -9.592992 1.808109 2.820599 -11.905151 -2.819377 -15.567748 -2.727107 -1.538262 7.963048 1.047765 3.599132 -12.115706 -0.529300 -0.000000 -28.029500 9.768120 0.165930 1.750181 8.180931 -0.342976 -52.477653 0.389099 -3.741572 51.163826 -1.637254 -6.095447 -6.141452 -0.613101 0.000000 -36.540400
-12.347360 17.154933 -0.714987 41.976373 86.965278 63.425589 -9.609221 1.907688 2.597462 -12.014933 -1.836278 -13.971699 -2.813849 -1.628587 6.630883 0.909024 2.777091 -11.945227 -0.466200 -0.000000 -29.206500 9.663039 0.207469 2.082164 7.999352 0.139330 -53.383989 0.649608 -3.562749 47.931158 -1.496665 -5.343594 -5.451929 -0.680600 0.000000 -37.379300
-12.098560 17.117309 -0.710870 45.928694 87.065252 67.342026 -9.613314 2.015966 2.347277 -12.127241 -0.782422 -12.325554 -2.906873 -1.710739 5.279113 0.754304 1.836599 -11.687722 -0.386000 -0.000000 -30.771600 9.590034 0.247829 2.415072 7.727190 0.546471 -54.136799 0.923875 -3.349531 44.428814 -1.317409 -4.493785 -4.540652 -0.740900 -0.000000 -38.454600
